FFmpeg version SVN-r25716, Copyright (c) 2000-2010 the FFmpeg developers  built on Nov 10 2010 12:23:18 with gcc 4.1.2 20080704 (Red Hat 4.1.2-48)  configuration: --enable-libmp3lame --enable-shared --disable-mmx --arch=x86_64  libavutil     50.33. 0 / 50.33. 0  libavcore      0.12. 1 /  0.12. 1  libavcodec    52.94. 4 / 52.94. 4  libavformat   52.84. 0 / 52.84. 0  libavdevice   52. 2. 2 / 52. 2. 2  libavfilter    1.59. 0 /  1.59. 0  libswscale     0.12. 0 /  0.12. 0Seems stream 0 codec frame rate differs from container frame rate: 1200.00 (1200/1) -> 30.00 (30/1)Input #0, mov,mp4,m4a,3gp,3g2,mj2, from '/RAID10/data/converted_video_files/39301.mov':  Metadata:    major_brand     : qt      minor_version   : 537199360    compatible_brands: qt    Duration: 00:00:04.46, start: 0.000000, bitrate: 16524 kb/s    Stream #0.0(eng): Video: h264, yuv420p, 512x512, 16513 kb/s, 30 fps, 30 tbr, 600 tbn, 1200 tbc[buffer @ 0xe396580] w:512 h:512 pixfmt:yuv420pOutput #0, flv, to '/RAID10/data/converted_video_files/39301.flv':  Metadata:    encoder         : Lavf52.84.0    Stream #0.0(eng): Video: flv, yuv420p, 512x512, q=2-31, 600 kb/s, 1k tbn, 24 tbcStream mapping:  Stream #0.0 -> #0.0Press [q] to stop encodingframe=   35 fps=  0 q=31.0 size=     723kB time=1.46 bitrate=4059.6kbits/s dup=0 drop=8    frame=   72 fps= 69 q=24.8 size=     876kB time=3.00 bitrate=2392.5kbits/s dup=0 drop=18    frame=  107 fps= 71 q=31.0 Lsize=    1040kB time=4.46 bitrate=1911.7kbits/s dup=0 drop=27    video:1038kB audio:0kB global headers:0kB muxing overhead 0.180750%